<svg id="Layer_1" height="512" viewBox="0 0 512 512" width="512" xmlns="http://www.w3.org/2000/svg" data-name="Layer 1"><path d="m239 267h57v54h-57z"/><path d="m229 219v-85h-190v85zm-21.333-73h5.833a5 5 0 1 1 0 10h-5.837a5 5 0 0 1 0-10zm-54.5 0h31.229a5 5 0 0 1 0 10h-31.234a5 5 0 0 1 0-10zm-92.005 0h69a5 5 0 0 1 0 10h-69a5 5 0 1 1 0-10z"/><path d="m239 244h68v13h-68z"/><path d="m372.6 104h-341a10 10 0 1 0 0 20h365.5a24.462 24.462 0 0 0 -24.5-20z"/><path d="m455.467 274h16.533v-29h-16.533a14.5 14.5 0 0 0 0 29z"/><path d="m156.886 356.012a28.917 28.917 0 1 1 -52.618.131l-13.3.034a42.635 42.635 0 0 0 -1.268 11.407 40.908 40.908 0 1 0 80.139-11.605z"/><path d="m437.733 309.366-45.044 65.267a45.894 45.894 0 0 0 2.512 8.48l93.087-52.126c-10.664-14.279-31.557-23.347-50.555-21.621z"/><path d="m408.79 333.698 6.629-9.605-6.393-6.393-6.629 9.605z"/><path d="m430.143 263.162a26.047 26.047 0 0 0 -2.7-13.55l-58.254-115.612h-8.377l43.125 115.06a24.2 24.2 0 0 1 1.311 11.861 25.135 25.135 0 0 1 -4.44 11.137l-38.525 53.9a12.107 12.107 0 0 1 -10.218 5.042h-117.849a4.953 4.953 0 0 1 -5.216-4.713v-97.287h-190v117.307l22.8-.057a71.28 71.28 0 0 1 137.647-.345l178.25-.446a2.387 2.387 0 0 0 .187-.238l47.641-68.973a26.269 26.269 0 0 0 4.618-13.086z"/><path d="m449.4 384.214a16.611 16.611 0 0 0 12.836-27.178l-28.552 15.989a16.753 16.753 0 0 0 15.716 11.189z"/><path d="m471.062 352.1a26.628 26.628 0 0 1 -21.662 42.114 26.83 26.83 0 0 1 -24.515-16.262l-12.522 7.012a40.911 40.911 0 0 0 77.945-17.38 40.407 40.407 0 0 0 -6.738-22.5z"/><path d="m149.519 368.1a18.726 18.726 0 0 0 -4.347-12.054l-29.2.073a18.915 18.915 0 1 0 33.547 11.981z"/><path d="m130.6 303.347a61.686 61.686 0 0 0 -58.527 42.877l116.956-.293a61.675 61.675 0 0 0 -58.429-42.584z"/></svg>